<svg xmlns="http://www.w3.org/2000/svg" viewBox="0 0 64 64" width="64" height="64">
  <ellipse cx="32" cy="56" rx="22" ry="5" fill="#000" opacity=".15"/>
  <path d="M10 6h6v40h-6zM48 6h6v40h-6z" fill="#8f6134" stroke="#5c3d1f" stroke-width="1.2"/>
  <path d="M4 12L32 2l28 10z" fill="#c8413c" stroke="#8f2a26" stroke-width="1.4"/>
  <path d="M8 14h48l-3 5H11z" fill="#a83733"/>
  <ellipse cx="32" cy="42" rx="22" ry="12" fill="#9aa3ab" stroke="#6f7880" stroke-width="1.4"/>
  <ellipse cx="32" cy="41" rx="16" ry="8" fill="#3f6f8f"/>
  <ellipse cx="32" cy="40.5" rx="13" ry="6" fill="#54a9dc"/>
  <g fill="#b2b8bf" stroke="#6f7880" stroke-width=".9">
    <circle cx="13" cy="44" r="4"/><circle cx="22" cy="49" r="4"/><circle cx="32" cy="51" r="4"/>
    <circle cx="42" cy="49" r="4"/><circle cx="51" cy="44" r="4"/>
  </g>
  <rect x="12" y="20" width="40" height="4" rx="2" fill="#6d4a28"/>
  <path d="M32 24v8" stroke="#3a2b1c" stroke-width="1.4"/>
  <rect x="27" y="31" width="10" height="8" rx="1.5" fill="#a9763f" stroke="#5c3d1f" stroke-width="1.2"/>
</svg>
